<svg width="733" height="459" xmlns="http://www.w3.org/2000/svg" xmlns:xlink="http://www.w3.org/1999/xlink" overflow="hidden"><g transform="translate(-273 -56)"><rect x="275" y="57" width="730" height="457" fill="#FFFFFF"/><path d="M654 75 994 75 994 500 654 500Z" fill="#FFFFFF" fill-rule="evenodd"/><path d="M654.5 75.5001 994.5 75.5001 994.5 500.5 654.5 500.5Z" stroke="#FFFFFF" stroke-width="1.42667" stroke-linecap="round" stroke-linejoin="round" stroke-miterlimit="10" fill="#FFFFFF" fill-rule="evenodd"/><path d="M705 83 986 83 986 474 705 474Z" fill="#FCFCFC" fill-rule="evenodd"/><path d="M849.5 345.5 909.5 345.5 909.5 394.5 849.5 394.5Z" stroke="#E56A1C" stroke-width="2.84" stroke-miterlimit="8" fill="#E56A1C" fill-rule="evenodd" fill-opacity="0.101961"/><path d="M715.5 230.5 776.5 230.5 776.5 345.5 715.5 345.5Z" stroke="#0C8890" stroke-width="2.84" stroke-miterlimit="8" fill="#0C8890" fill-rule="evenodd" fill-opacity="0.101961"/><path d="M916.5 345.5 976.5 345.5 976.5 372.5 916.5 372.5Z" stroke="#FBBC4C" stroke-width="2.84" stroke-miterlimit="8" fill="#FBBC4C" fill-rule="evenodd" fill-opacity="0.101961"/><path d="M782.5 341.5 842.5 341.5 842.5 345.5 782.5 345.5Z" stroke="#54B65D" stroke-width="2.84" stroke-miterlimit="8" fill="#54B65D" fill-rule="evenodd" fill-opacity="0.101961"/><path d="M856.5 373.5 903.5 373.5" stroke="#8C8C8C" stroke-width="1.42667" stroke-linejoin="round" stroke-miterlimit="10" fill="none" fill-rule="evenodd"/><path d="M879.5 373.5 879.5 416.5" stroke="#8C8C8C" stroke-width="1.42667" stroke-linejoin="round" stroke-miterlimit="10" fill="none" fill-rule="evenodd"/><path d="M856.5 416.5 903.5 416.5" stroke="#8C8C8C" stroke-width="1.42667" stroke-linejoin="round" stroke-miterlimit="10" fill="none" fill-rule="evenodd"/><path d="M722.5 197.5 769.5 197.5" stroke="#8C8C8C" stroke-width="1.42667" stroke-linejoin="round" stroke-miterlimit="10" fill="none" fill-rule="evenodd"/><path d="M745.5 197.5 745.5 263.5" stroke="#8C8C8C" stroke-width="1.42667" stroke-linejoin="round" stroke-miterlimit="10" fill="none" fill-rule="evenodd"/><path d="M722.5 263.5 769.5 263.5" stroke="#8C8C8C" stroke-width="1.42667" stroke-linejoin="round" stroke-miterlimit="10" fill="none" fill-rule="evenodd"/><path d="M923.5 330.5 970.5 330.5" stroke="#8C8C8C" stroke-width="1.42667" stroke-linejoin="round" stroke-miterlimit="10" fill="none" fill-rule="evenodd"/><path d="M946.5 330.5 946.5 414.5" stroke="#8C8C8C" stroke-width="1.42667" stroke-linejoin="round" stroke-miterlimit="10" fill="none" fill-rule="evenodd"/><path d="M923.5 414.5 970.5 414.5" stroke="#8C8C8C" stroke-width="1.42667" stroke-linejoin="round" stroke-miterlimit="10" fill="none" fill-rule="evenodd"/><path d="M789.5 328.5 836.5 328.5" stroke="#8C8C8C" stroke-width="1.42667" stroke-linejoin="round" stroke-miterlimit="10" fill="none" fill-rule="evenodd"/><path d="M812.5 328.5 812.5 354.5" stroke="#8C8C8C" stroke-width="1.42667" stroke-linejoin="round" stroke-miterlimit="10" fill="none" fill-rule="evenodd"/><path d="M789.5 354.5 836.5 354.5" stroke="#8C8C8C" stroke-width="1.42667" stroke-linejoin="round" stroke-miterlimit="10" fill="none" fill-rule="evenodd"/><text fill="#0D0D0D" font-family="Arial,Arial_MSFontService,sans-serif" font-weight="700" font-size="10" transform="translate(879.176 332)">a</text><text fill="#0D0D0D" font-family="Arial,Arial_MSFontService,sans-serif" font-weight="700" font-size="10" transform="translate(742.16 184)">b</text><text fill="#0D0D0D" font-family="Arial,Arial_MSFontService,sans-serif" font-weight="700" font-size="10" transform="translate(943.467 315)">a</text><text fill="#0D0D0D" font-family="Arial,Arial_MSFontService,sans-serif" font-weight="700" font-size="10" transform="translate(808.194 315)">ab</text><path d="M705.5 345.5 986.5 345.5" stroke="#FF0000" stroke-width="2.84" stroke-linejoin="round" stroke-miterlimit="10" stroke-dasharray="2.84 2.84" fill="none" fill-rule="evenodd"/><path d="M705.5 474.5 705.5 83.5001" stroke="#1A1A1A" stroke-width="1.42667" stroke-linejoin="round" stroke-miterlimit="10" fill="none" fill-rule="evenodd"/><text fill="#555555" font-family="Arial,Arial_MSFontService,sans-serif" font-weight="400" font-size="9" transform="translate(687.52 458)">-</text><text fill="#555555" font-family="Arial,Arial_MSFontService,sans-serif" font-weight="400" font-size="9" transform="translate(690.52 458)">5</text><text fill="#555555" font-family="Arial,Arial_MSFontService,sans-serif" font-weight="400" font-size="9" transform="translate(691.52 347)">0</text><text fill="#555555" font-family="Arial,Arial_MSFontService,sans-serif" font-weight="400" font-size="9" transform="translate(691.52 236)">5</text><text fill="#555555" font-family="Arial,Arial_MSFontService,sans-serif" font-weight="400" font-size="9" transform="translate(684.853 125)">10</text><path d="M701.5 456.5 705.5 456.5" stroke="#1A1A1A" stroke-width="1.42667" stroke-linejoin="round" stroke-miterlimit="10" fill="none" fill-rule="evenodd"/><path d="M701.5 345.5 705.5 345.5" stroke="#1A1A1A" stroke-width="1.42667" stroke-linejoin="round" stroke-miterlimit="10" fill="none" fill-rule="evenodd"/><path d="M701.5 234.5 705.5 234.5" stroke="#1A1A1A" stroke-width="1.42667" stroke-linejoin="round" stroke-miterlimit="10" fill="none" fill-rule="evenodd"/><path d="M701.5 123.5 705.5 123.5" stroke="#1A1A1A" stroke-width="1.42667" stroke-linejoin="round" stroke-miterlimit="10" fill="none" fill-rule="evenodd"/><path d="M705.5 474.5 986.5 474.5" stroke="#1A1A1A" stroke-width="1.42667" stroke-linejoin="round" stroke-miterlimit="10" fill="none" fill-rule="evenodd"/><path d="M745.5 478.5 745.5 474.5" stroke="#1A1A1A" stroke-width="1.42667" stroke-linejoin="round" stroke-miterlimit="10" fill="none" fill-rule="evenodd"/><path d="M812.5 478.5 812.5 474.5" stroke="#1A1A1A" stroke-width="1.42667" stroke-linejoin="round" stroke-miterlimit="10" fill="none" fill-rule="evenodd"/><path d="M879.5 478.5 879.5 474.5" stroke="#1A1A1A" stroke-width="1.42667" stroke-linejoin="round" stroke-miterlimit="10" fill="none" fill-rule="evenodd"/><path d="M946.5 478.5 946.5 474.5" stroke="#1A1A1A" stroke-width="1.42667" stroke-linejoin="round" stroke-miterlimit="10" fill="none" fill-rule="evenodd"/><text fill="#555555" font-family="Arial,Arial_MSFontService,sans-serif" font-weight="400" font-size="9" transform="translate(741.929 488)">C</text><text fill="#555555" font-family="Arial,Arial_MSFontService,sans-serif" font-weight="400" font-size="9" transform="translate(807.951 488)">LS</text><text fill="#555555" font-family="Arial,Arial_MSFontService,sans-serif" font-weight="400" font-size="9" transform="translate(873.471 488)">BW</text><text fill="#555555" font-family="Arial,Arial_MSFontService,sans-serif" font-weight="400" font-size="9" transform="translate(935.654 488)">IMTA</text><text fill="#555555" font-family="Arial,Arial_MSFontService,sans-serif" font-weight="400" font-size="12" transform="matrix(-1.83697e-16 -1 1 -1.83697e-16 672.19 395)">Difference</text><text fill="#555555" font-family="Arial,Arial_MSFontService,sans-serif" font-weight="400" font-size="12" transform="matrix(-1.83697e-16 -1 1 -1.83697e-16 672.19 337)">in total</text><text fill="#555555" font-family="Arial,Arial_MSFontService,sans-serif" font-weight="400" font-size="12" transform="matrix(-1.83697e-16 -1 1 -1.83697e-16 672.19 299)">number</text><text fill="#555555" font-family="Arial,Arial_MSFontService,sans-serif" font-weight="400" font-size="12" transform="matrix(-1.83697e-16 -1 1 -1.83697e-16 672.19 255)">of</text><text fill="#555555" font-family="Arial,Arial_MSFontService,sans-serif" font-weight="400" font-size="12" transform="matrix(-1.83697e-16 -1 1 -1.83697e-16 672.19 241)">individuals</text><path d="M278 75 618 75 618 500 278 500Z" fill="#FFFFFF" fill-rule="evenodd"/><path d="M278.5 75.5001 618.5 75.5001 618.5 500.5 278.5 500.5Z" stroke="#FFFFFF" stroke-width="1.42667" stroke-linecap="round" stroke-linejoin="round" stroke-miterlimit="10" fill="#FFFFFF" fill-rule="evenodd"/><path d="M336 83 610 83 610 476 336 476Z" fill="#FCFCFC" fill-rule="evenodd"/><path d="M345.5 248.5 404.5 248.5 404.5 420.5 345.5 420.5Z" stroke="#0C8890" stroke-width="2.84" stroke-miterlimit="8" fill="#0C8890" fill-rule="evenodd" fill-opacity="0.101961"/><path d="M411.5 153.5 470.5 153.5 470.5 420.5 411.5 420.5Z" stroke="#54B65D" stroke-width="2.84" stroke-miterlimit="8" fill="#54B65D" fill-rule="evenodd" fill-opacity="0.101961"/><path d="M476.5 377.5 535.5 377.5 535.5 420.5 476.5 420.5Z" stroke="#E56A1C" stroke-width="2.84" stroke-miterlimit="8" fill="#E56A1C" fill-rule="evenodd" fill-opacity="0.101961"/><path d="M542.5 346.5 600.5 346.5 600.5 420.5 542.5 420.5Z" stroke="#FBBC4C" stroke-width="2.84" stroke-miterlimit="8" fill="#FBBC4C" fill-rule="evenodd" fill-opacity="0.101961"/><path d="M352.5 201.5 398.5 201.5" stroke="#8C8C8C" stroke-width="1.42667" stroke-linejoin="round" stroke-miterlimit="10" fill="none" fill-rule="evenodd"/><path d="M375.5 201.5 375.5 294.5" stroke="#8C8C8C" stroke-width="1.42667" stroke-linejoin="round" stroke-miterlimit="10" fill="none" fill-rule="evenodd"/><path d="M352.5 294.5 398.5 294.5" stroke="#8C8C8C" stroke-width="1.42667" stroke-linejoin="round" stroke-miterlimit="10" fill="none" fill-rule="evenodd"/><path d="M417.5 101.5 463.5 101.5" stroke="#8C8C8C" stroke-width="1.42667" stroke-linejoin="round" stroke-miterlimit="10" fill="none" fill-rule="evenodd"/><path d="M440.5 101.5 440.5 205.5" stroke="#8C8C8C" stroke-width="1.42667" stroke-linejoin="round" stroke-miterlimit="10" fill="none" fill-rule="evenodd"/><path d="M417.5 205.5 463.5 205.5" stroke="#8C8C8C" stroke-width="1.42667" stroke-linejoin="round" stroke-miterlimit="10" fill="none" fill-rule="evenodd"/><path d="M483.5 297.5 528.5 297.5" stroke="#8C8C8C" stroke-width="1.42667" stroke-linejoin="round" stroke-miterlimit="10" fill="none" fill-rule="evenodd"/><path d="M506.5 297.5 506.5 458.5" stroke="#8C8C8C" stroke-width="1.42667" stroke-linejoin="round" stroke-miterlimit="10" fill="none" fill-rule="evenodd"/><path d="M483.5 458.5 528.5 458.5" stroke="#8C8C8C" stroke-width="1.42667" stroke-linejoin="round" stroke-miterlimit="10" fill="none" fill-rule="evenodd"/><path d="M548.5 278.5 594.5 278.5" stroke="#8C8C8C" stroke-width="1.42667" stroke-linejoin="round" stroke-miterlimit="10" fill="none" fill-rule="evenodd"/><path d="M571.5 278.5 571.5 413.5" stroke="#8C8C8C" stroke-width="1.42667" stroke-linejoin="round" stroke-miterlimit="10" fill="none" fill-rule="evenodd"/><path d="M548.5 413.5 594.5 413.5" stroke="#8C8C8C" stroke-width="1.42667" stroke-linejoin="round" stroke-miterlimit="10" fill="none" fill-rule="evenodd"/><path d="M336.5 420.5 610.5 420.5" stroke="#FF0000" stroke-width="2.84" stroke-linejoin="round" stroke-miterlimit="10" stroke-dasharray="2.84 2.84" fill="none" fill-rule="evenodd"/><path d="M336.5 476.5 336.5 83.5001" stroke="#1A1A1A" stroke-width="1.42667" stroke-linejoin="round" stroke-miterlimit="10" fill="none" fill-rule="evenodd"/><text fill="#555555" font-family="Arial,Arial_MSFontService,sans-serif" font-weight="400" font-size="8" transform="translate(323.1 421)">0</text><text fill="#555555" font-family="Arial,Arial_MSFontService,sans-serif" font-weight="400" font-size="8" transform="translate(317.767 315)">50</text><text fill="#555555" font-family="Arial,Arial_MSFontService,sans-serif" font-weight="400" font-size="8" transform="translate(312.433 210)">100</text><text fill="#555555" font-family="Arial,Arial_MSFontService,sans-serif" font-weight="400" font-size="8" transform="translate(312.433 104)">150</text><path d="M332.5 420.5 336.5 420.5" stroke="#1A1A1A" stroke-width="1.42667" stroke-linejoin="round" stroke-miterlimit="10" fill="none" fill-rule="evenodd"/><path d="M332.5 314.5 336.5 314.5" stroke="#1A1A1A" stroke-width="1.42667" stroke-linejoin="round" stroke-miterlimit="10" fill="none" fill-rule="evenodd"/><path d="M332.5 209.5 336.5 209.5" stroke="#1A1A1A" stroke-width="1.42667" stroke-linejoin="round" stroke-miterlimit="10" fill="none" fill-rule="evenodd"/><path d="M332.5 103.5 336.5 103.5" stroke="#1A1A1A" stroke-width="1.42667" stroke-linejoin="round" stroke-miterlimit="10" fill="none" fill-rule="evenodd"/><path d="M336.5 476.5 610.5 476.5" stroke="#1A1A1A" stroke-width="1.42667" stroke-linejoin="round" stroke-miterlimit="10" fill="none" fill-rule="evenodd"/><path d="M375.5 480.5 375.5 476.5" stroke="#1A1A1A" stroke-width="1.42667" stroke-linejoin="round" stroke-miterlimit="10" fill="none" fill-rule="evenodd"/><path d="M440.5 480.5 440.5 476.5" stroke="#1A1A1A" stroke-width="1.42667" stroke-linejoin="round" stroke-miterlimit="10" fill="none" fill-rule="evenodd"/><path d="M506.5 480.5 506.5 476.5" stroke="#1A1A1A" stroke-width="1.42667" stroke-linejoin="round" stroke-miterlimit="10" fill="none" fill-rule="evenodd"/><path d="M571.5 480.5 571.5 476.5" stroke="#1A1A1A" stroke-width="1.42667" stroke-linejoin="round" stroke-miterlimit="10" fill="none" fill-rule="evenodd"/><text fill="#555555" font-family="Arial,Arial_MSFontService,sans-serif" font-weight="400" font-size="9" transform="translate(371.378 489)">C</text><text fill="#555555" font-family="Arial,Arial_MSFontService,sans-serif" font-weight="400" font-size="9" transform="translate(434.842 489)">LS</text><text fill="#555555" font-family="Arial,Arial_MSFontService,sans-serif" font-weight="400" font-size="9" transform="translate(499.285 489)">BW</text><text fill="#555555" font-family="Arial,Arial_MSFontService,sans-serif" font-weight="400" font-size="9" transform="translate(561.977 489)">IMTA</text><text fill="#555555" font-family="Arial,Arial_MSFontService,sans-serif" font-weight="400" font-size="14" transform="matrix(-1.83697e-16 -1 1 -1.83697e-16 293.769 360)">Change in</text><text fill="#555555" font-family="Arial,Arial_MSFontService,sans-serif" font-weight="400" font-size="14" transform="matrix(-1.83697e-16 -1 1 -1.83697e-16 293.769 292)">t</text><text fill="#555555" font-family="Arial,Arial_MSFontService,sans-serif" font-weight="400" font-size="14" transform="matrix(-1.83697e-16 -1 1 -1.83697e-16 293.769 288)">otal</text><text fill="#555555" font-family="Arial,Arial_MSFontService,sans-serif" font-weight="400" font-size="14" transform="matrix(-1.83697e-16 -1 1 -1.83697e-16 293.769 261)">w</text><text fill="#555555" font-family="Arial,Arial_MSFontService,sans-serif" font-weight="400" font-size="14" transform="matrix(-1.83697e-16 -1 1 -1.83697e-16 293.769 251)">eight</text><text fill="#555555" font-family="Arial,Arial_MSFontService,sans-serif" font-weight="400" font-size="14" transform="matrix(-1.83697e-16 -1 1 -1.83697e-16 293.769 217)">(g)</text><text fill="#555555" font-family="Arial,Arial_MSFontService,sans-serif" font-weight="700" font-size="19" transform="translate(661 80)">B</text><text fill="#555555" font-family="Arial,Arial_MSFontService,sans-serif" font-weight="700" font-size="19" transform="translate(284.527 81)">A</text></g></svg>